<?xml version="1.0" encoding="UTF-8"?>
<svg width="192" height="192" viewBox="0 0 192 192" fill="none" xmlns="http://www.w3.org/2000/svg">
  <rect width="192" height="192" fill="#4ADE80"/>
  <path d="M96 48C72.804 48 54 66.804 54 90C54 113.196 72.804 132 96 132C119.196 132 138 113.196 138 90C138 66.804 119.196 48 96 48ZM96 120C78.327 120 64 105.673 64 88C64 70.327 78.327 56 96 56C113.673 56 128 70.327 128 88C128 105.673 113.673 120 96 120Z" fill="white"/>
  <path d="M96 72C83.85 72 74 81.85 74 94C74 106.15 83.85 116 96 116C108.15 116 118 106.15 118 94C118 81.85 108.15 72 96 72ZM96 108C87.163 108 80 100.837 80 92C80 83.163 87.163 76 96 76C104.837 76 112 83.163 112 92C112 100.837 104.837 108 96 108Z" fill="white"/>
  <path d="M96 84C92.686 84 90 86.686 90 90C90 93.314 92.686 96 96 96C99.314 96 102 93.314 102 90C102 86.686 99.314 84 96 84Z" fill="white"/>
</svg> 